<?xml version="1.0" encoding="UTF-8"?>
<svg width="133px" height="168px" viewBox="0 0 133 168" version="1.1" xmlns="http://www.w3.org/2000/svg" xmlns:xlink="http://www.w3.org/1999/xlink">
    <!-- Generator: Sketch 51.1 (57501) - http://www.bohemiancoding.com/sketch -->
    <title>icons8-assistant</title>
    <desc>Created with Sketch.</desc>
    <defs></defs>
    <g id="Page-1" stroke="none" stroke-width="1" fill="none" fill-rule="evenodd">
        <g id="Desktop-HD" transform="translate(-391.000000, -1198.000000)" fill-rule="nonzero">
            <g id="Group-6" transform="translate(240.000000, 600.000000)">
                <g id="Group-5" transform="translate(151.000000, 598.000000)">
                    <g id="icons8-assistant">
                        <g id="Group" transform="translate(93.000000, 84.000000)">
                            <path d="M15.5,28.7857143 C7.97142857,28.7857143 2.21428571,23.0285714 2.21428571,15.5 C2.21428571,7.97142857 7.97142857,2.21428571 15.5,2.21428571 C26.5714286,2.21428571 28.7857143,5.31428571 28.7857143,10.1857143 C28.7857143,18.6 22.1428571,28.7857143 15.5,28.7857143 Z" id="Shape" fill="#E8D47B"></path>
                            <path d="M15.5,4.42857143 C26.5714286,4.42857143 26.5714286,7.52857143 26.5714286,10.1857143 C26.5714286,16.8285714 20.8142857,26.5714286 15.5,26.5714286 C9.3,26.5714286 4.42857143,21.7 4.42857143,15.5 C4.42857143,9.3 9.3,4.42857143 15.5,4.42857143 Z M15.5,0 C7.08571429,0 0,7.08571429 0,15.5 C0,23.9142857 7.08571429,31 15.5,31 C23.9142857,31 31,19.0428571 31,10.1857143 C31,1.32857143 23.9142857,0 15.5,0 Z" id="Shape" fill="#BA9B48"></path>
                        </g>
                        <g id="Group" transform="translate(0.000000, 84.000000)">
                            <path d="M15.5,28.7857143 C8.85714286,28.7857143 2.21428571,18.6 2.21428571,10.1857143 C2.21428571,5.31428571 4.42857143,2.21428571 15.5,2.21428571 C23.0285714,2.21428571 28.7857143,7.97142857 28.7857143,15.5 C28.7857143,23.0285714 23.0285714,28.7857143 15.5,28.7857143 Z" id="Shape" fill="#E8D47B"></path>
                            <path d="M15.5,4.42857143 C21.7,4.42857143 26.5714286,9.3 26.5714286,15.5 C26.5714286,21.7 21.7,26.5714286 15.5,26.5714286 C10.1857143,26.5714286 4.42857143,16.8285714 4.42857143,10.1857143 C4.42857143,7.52857143 4.42857143,4.42857143 15.5,4.42857143 Z M15.5,0 C7.08571429,0 0,1.77142857 0,10.1857143 C0,18.6 7.08571429,31 15.5,31 C23.9142857,31 31,23.9142857 31,15.5 C31,7.08571429 23.9142857,0 15.5,0 Z" id="Shape" fill="#BA9B48"></path>
                        </g>
                        <g id="Group" transform="translate(13.000000, 27.000000)">
                            <path d="M49,138.796875 C43.2090909,138.796875 38.3090909,136.59375 34.3,132.1875 L33.8545455,131.746875 L33.4090909,131.746875 C14.7,125.1375 2.22727273,107.5125 2.22727273,88.125 L2.22727273,23.79375 C2.22727273,12.3375 11.5818182,3.084375 23.1636364,3.084375 L74.3909091,3.084375 C85.9727273,3.084375 95.3272727,12.3375 95.3272727,23.79375 L95.3272727,88.125 C95.3272727,107.5125 82.8545455,125.1375 64.1454545,131.746875 L63.7,131.746875 L63.7,132.1875 C59.6909091,136.59375 54.7909091,138.796875 49,138.796875 Z" id="Shape" fill="#FFEEA3"></path>
                            <path d="M74.8363636,4.846875 C85.0818182,4.846875 93.5454545,13.21875 93.5454545,23.353125 L93.5454545,88.125 C93.5454545,106.63125 81.5181818,123.375 64.1454545,129.54375 L63.2545455,129.984375 L62.3636364,130.865625 C58.8,134.390625 53.9,136.59375 49,136.59375 C44.1,136.59375 39.2,134.390625 36.0818182,130.865625 L35.1909091,129.984375 L34.3,129.54375 C16.4818182,123.375 4.45454545,106.63125 4.45454545,88.125 L4.45454545,23.79375 C4.45454545,13.659375 12.9181818,5.2875 23.1636364,5.2875 L74.8363636,5.2875 L74.8363636,4.846875 Z M74.8363636,0.440625 L23.1636364,0.440625 C10.2454545,0.440625 0,11.015625 0,23.79375 L0,88.125 C0,109.275 13.8090909,126.9 32.5181818,133.95 C36.5272727,138.35625 42.3181818,141 49,141 C55.6818182,141 61.4727273,138.35625 65.4818182,133.95 C84.1909091,126.9 98,109.275 98,88.125 L98,23.79375 C98,11.015625 87.7545455,0.440625 74.8363636,0.440625 Z" id="Shape" fill="#BA9B48"></path>
                        </g>
                        <g id="Group">
                            <path d="M108.5,103.791667 L108.5,74.2 C108.5,49.025 89.4571429,41.9583333 89.4571429,41.9583333 L88.1285714,41.5166667 L87.2428571,42.8416667 C87.2428571,42.8416667 72.1857143,59.625 44.2857143,59.625 C26.1285714,59.625 15.9428571,68.9 15.9428571,85.6833333 L15.9428571,103.791667 L14.6142857,103.791667 C11.9571429,97.6083333 2.21428571,71.55 2.21428571,52.5583333 C2.21428571,21.2 30.5571429,2.20833333 57.5714286,2.20833333 C75.7285714,2.20833333 85.0285714,11.0416667 89.0142857,16.7833333 L89.9,17.6666667 L90.7857143,17.6666667 C98.7571429,17.6666667 121.785714,24.2916667 121.785714,54.325 C121.785714,69.3416667 111.6,97.6083333 109.385714,104.233333 L108.5,104.233333 L108.5,103.791667 Z" id="Shape" fill="#FFC49C"></path>
                            <path d="M57.5714286,4.41666667 C74.8428571,4.41666667 83.7,12.8083333 87.2428571,18.1083333 L88.5714286,19.875 L90.7857143,19.875 C98.3142857,19.875 119.571429,26.0583333 119.571429,54.325 C119.571429,64.4833333 114.7,81.7083333 110.714286,93.1916667 L110.714286,74.6416667 C110.714286,48.1416667 90.7857143,40.6333333 89.9,40.1916667 L87.2428571,39.3083333 L85.4714286,41.5166667 C84.5857143,41.9583333 70.8571429,57.4166667 43.8428571,57.4166667 C24.3571429,57.4166667 13.2857143,67.575 13.2857143,85.6833333 L13.2857143,93.6333333 C9.3,82.5916667 4.42857143,65.8083333 4.42857143,52.5583333 C4.42857143,29.15 23.0285714,4.41666667 57.5714286,4.41666667 Z M57.5714286,0 C20.8142857,0 0,26.9416667 0,52.5583333 C0,74.6416667 13.2857143,106 13.2857143,106 L17.7142857,106 C17.7142857,106 17.7142857,91.8666667 17.7142857,85.6833333 C17.7142857,66.6916667 30.5571429,61.8333333 43.8428571,61.8333333 C73.0714286,61.8333333 88.5714286,44.1666667 88.5714286,44.1666667 C88.5714286,44.1666667 106.285714,50.35 106.285714,74.2 C106.285714,80.825 106.285714,106 106.285714,106 L110.714286,106 C110.714286,106 124,71.55 124,53.8833333 C124,22.9666667 100.085714,15.0166667 90.7857143,15.0166667 C88.5714286,12.3666667 78.8285714,0 57.5714286,0 Z" id="Shape" fill="#A16A4A"></path>
                        </g>
                        <circle id="Oval" fill="#36404D" cx="86.5" cy="103.5" r="6.5"></circle>
                        <circle id="Oval" fill="#36404D" cx="37.5" cy="103.5" r="6.5"></circle>
                        <g id="Group" transform="translate(106.000000, 80.000000)">
                            <path d="M4.5,37.7777778 C3.15,37.7777778 2.25,36.8888889 2.25,35.5555556 L2.25,4.44444444 C2.25,3.11111111 3.15,2.22222222 4.5,2.22222222 L13.5,2.22222222 C19.8,2.22222222 24.75,7.11111111 24.75,13.3333333 L24.75,26.6666667 C24.75,32.8888889 19.8,37.7777778 13.5,37.7777778 L4.5,37.7777778 Z" id="Shape" fill="#B6C9D6"></path>
                            <path d="M13.5,4.44444444 C18.45,4.44444444 22.5,8.44444444 22.5,13.3333333 L22.5,26.6666667 C22.5,31.5555556 18.45,35.5555556 13.5,35.5555556 L4.5,35.5555556 L4.5,4.44444444 L13.5,4.44444444 Z M13.5,0 L4.5,0 C1.8,0 0,1.77777778 0,4.44444444 L0,35.5555556 C0,38.2222222 1.8,40 4.5,40 L13.5,40 C21.15,40 27,34.2222222 27,26.6666667 L27,13.3333333 C27,5.77777778 21.15,0 13.5,0 Z" id="Shape" fill="#788B9C"></path>
                        </g>
                        <path d="M98.0434783,137 L85,150 L95,150 C98.9130435,146.1 102.391304,141.766667 105,137 L98.0434783,137 Z" id="Shape" fill="#FFEEA3"></path>
                        <path d="M103.716535,146 L68,146 L68,141.538462 L103.716535,141.538462 C112.535433,141.538462 119.590551,134.4 119.590551,125.476923 L119.590551,117 L124,117 L124,125.476923 C124,136.630769 114.740157,146 103.716535,146 Z" id="Shape" fill="#788B9C"></path>
                    </g>
                </g>
            </g>
        </g>
    </g>
</svg>