<?xml version="1.0" encoding="UTF-8"?>
<svg width="216px" height="207px" viewBox="0 0 216 207" version="1.1" xmlns="http://www.w3.org/2000/svg" xmlns:xlink="http://www.w3.org/1999/xlink">
    <!-- Generator: Sketch 51.1 (57501) - http://www.bohemiancoding.com/sketch -->
    <title>Shape</title>
    <desc>Created with Sketch.</desc>
    <defs>
        <linearGradient x1="0%" y1="100.999999%" x2="100%" y2="0%" id="linearGradient-1">
            <stop stop-color="#2367AE" offset="0%"></stop>
            <stop stop-color="#6DBED7" offset="100%"></stop>
        </linearGradient>
    </defs>
    <g id="Page-1" stroke="none" stroke-width="1" fill="none" fill-rule="evenodd">
        <g id="Desktop-HD" transform="translate(-338.000000, -600.000000)" fill="url(#linearGradient-1)" fill-rule="nonzero">
            <g id="Group-6" transform="translate(240.000000, 600.000000)">
                <g id="Group-3" transform="translate(98.000000, 0.000000)">
                    <g id="icons8-line_chart">
                        <path d="M198,0 C188.050779,0 180,8.050779 180,18 C180,21.585942 180.984375,25.03125 182.8125,27.84375 L165.65625,54.28125 C164.496096,54.035154 163.230471,54 162,54 C158.132817,54 154.546875,55.300779 151.59375,57.375 L134.71875,47.25 C134.824221,46.511721 135,45.773442 135,45 C135,35.050779 126.949221,27 117,27 C107.050779,27 99,35.050779 99,45 C99,46.652346 99.140625,48.269529 99.5625,49.78125 L80.4375,65.25 C77.90625,63.914067 75.058596,63 72,63 C62.050779,63 54,71.050779 54,81 C54,81.386721 53.964846,81.738279 54,82.125 L29.53125,94.21875 C26.402346,91.617192 22.394529,90 18,90 C8.050779,90 0,98.050779 0,108 C0,117.949221 8.050779,126 18,126 C27.949221,126 36,117.949221 36,108 C36,107.71875 36,107.4375 36,107.15625 L60.46875,94.78125 C63.597654,97.382817 67.605471,99 72,99 C81.949221,99 90,90.949221 90,81 C90,79.347654 89.859375,77.730471 89.4375,76.21875 L108.5625,60.75 C111.09375,62.085942 113.941404,63 117,63 C120.867192,63 124.453125,61.699221 127.40625,59.625 L144.28125,69.75 C144.175779,70.488279 144,71.226567 144,72 C144,81.949221 152.050779,90 162,90 C171.949221,90 180,81.949221 180,72 C180,68.414067 179.015625,64.96875 177.1875,62.15625 L194.625,35.71875 C195.714846,35.929692 196.839846,36 198,36 C207.949221,36 216,27.949221 216,18 C216,8.050779 207.949221,0 198,0 Z M198,117 C188.050779,117 180,125.050779 180,135 C180,138.269529 180.984375,141.363279 182.53125,144 L165.09375,171.28125 C164.074221,171.105471 163.054692,171 162,171 C159.644529,171 157.324221,171.28125 155.25,172.125 L133.875,150.75 C134.71875,148.675779 135,146.355471 135,144 C135,134.050779 126.949221,126 117,126 C107.050779,126 99,134.050779 99,144 C99,145.652346 99.140625,147.269529 99.5625,148.78125 L80.4375,164.25 C77.90625,162.914067 75.058596,162 72,162 C65.636721,162 60.011721,165.199221 56.8125,170.15625 L35.4375,166.78125 C33.539067,158.871096 26.472654,153 18,153 C8.050779,153 0,161.050779 0,171 C0,180.949221 8.050779,189 18,189 C24.363279,189 29.988279,185.800779 33.1875,180.84375 L54.5625,184.21875 C56.460942,192.128904 63.527346,198 72,198 C81.949221,198 90,189.949221 90,180 C90,178.347654 89.859375,176.730471 89.4375,175.21875 L108.5625,159.75 C111.09375,161.085942 113.941404,162 117,162 C119.355471,162 121.675779,161.71875 123.75,160.875 L145.125,182.25 C144.28125,184.324221 144,186.644529 144,189 C144,198.949221 152.050779,207 162,207 C171.949221,207 180,198.949221 180,189 C180,185.273442 178.839846,181.757817 176.90625,178.875 L194.0625,152.71875 C195.328125,153 196.664067,153 198,153 C207.949221,153 216,144.949221 216,135 C216,125.050779 207.949221,117 198,117 Z" id="Shape"></path>
                    </g>
                </g>
            </g>
        </g>
    </g>
</svg>